<svg xmlns="http://www.w3.org/2000/svg" width="111.633" height="23.39" viewBox="0 0 111.633 23.39">
  <path id="Tues" d="M100.058,22.385a.451.451,0,0,1-.22-.269c-.033-.084.028-.157.11-.2.067-.036.13-.077.236-.142-.346.009-.649,0-.956.033a4.37,4.37,0,0,1-.448.013,3.563,3.563,0,0,0-.5.02,4.067,4.067,0,0,1-.543.022,3.673,3.673,0,0,0-.58.028,3.571,3.571,0,0,1-.644.02c-.1,0-.2-.005-.3,0a9.677,9.677,0,0,1-1.834-.154c-.725-.132-1.454-.248-2.185-.354a.38.38,0,0,0-.151.018.455.455,0,0,1-.139.021.876.876,0,0,1-.448-.1.437.437,0,0,0-.274-.074.782.782,0,0,1-.6-.125c-.035-.027-.112-.052-.136-.034-.2.155-.355.03-.508-.086a.41.41,0,0,0-.306-.062c-.365.044-.635-.226-.977-.268-.306-.038-.6-.139-.908-.2-.146-.028-.31-.045-.405.112a.333.333,0,0,1-.414.148,2.208,2.208,0,0,1-.6-.2c-.048-.027-.114-.047-.094-.122.055-.205-.086-.112-.166-.111-.187,0-.353.108-.552.09-.257-.022-.392-.217-.57-.347a2.634,2.634,0,0,0-.964-.435.823.823,0,0,1-.318-.18,5.454,5.454,0,0,1-.857-.684.425.425,0,0,1-.122-.329.593.593,0,0,0-.046-.242c-.057-.152.09-.258.159-.378.02-.033.079-.056.059-.1-.06-.138-.005-.211.121-.257.092-.033.026-.092.017-.139-.028-.149-.03-.28.153-.34.115-.038.076-.156.052-.219-.04-.1-.024-.15.072-.2a.357.357,0,0,0,.2-.381,1.317,1.317,0,0,1,.353-.923,1.951,1.951,0,0,0,.158-.226,1.024,1.024,0,0,1,1.1-.438,5.234,5.234,0,0,1,.743.3,8.367,8.367,0,0,0,1.371.406c.634.149,1.29.149,1.923.3.656.159,1.337.167,2,.308.883.188,1.753.429,2.636.616.474.1.964.127,1.444.2a5.268,5.268,0,0,0,1.129.034c.571-.032,1.139-.106,1.708-.158.239-.022.48-.049.72-.049q.732.005,1.46-.048a16.407,16.407,0,0,0,1.709-.255c.575-.1,1.152-.2,1.727-.306a2.419,2.419,0,0,0,.637-.277.1.1,0,0,0,.045-.145c-.059-.076-.109-.179-.222-.182-.9-.02-1.8-.193-2.7-.142-.513.029-1.024.1-1.537.109a11.4,11.4,0,0,1-2,.1,8.486,8.486,0,0,1-1.186-.211,9.989,9.989,0,0,0-1.193-.166c-.486-.087-.982-.091-1.463-.226a6.646,6.646,0,0,0-.81-.113,11.735,11.735,0,0,1-1.507-.33c-.481-.138-.968-.247-1.451-.373-.021-.005-.045,0-.063-.01a9.457,9.457,0,0,0-1.777-.466,3.944,3.944,0,0,1-.651-.252c-.279-.156-.6-.189-.879-.341-.361-.2-.695-.437-1.053-.634a3.253,3.253,0,0,1-.86-.574,3.68,3.68,0,0,1-.467-.625c-.113-.189-.337-.312-.43-.529a1.582,1.582,0,0,1-.262-.979.234.234,0,0,0-.01-.105,1.339,1.339,0,0,1-.083-.752c.044-.153-.075-.309-.149-.454-.034-.066-.1-.136.053-.16.11-.017.07-.134.058-.2a1.031,1.031,0,0,1,.042-.454.425.425,0,0,0-.021-.364c-.091-.148-.01-.31.036-.448a1.391,1.391,0,0,0,.068-.687,2.778,2.778,0,0,1,.271-1.436A3.948,3.948,0,0,1,84.863,3.4c.117-.14.229-.285.351-.423A5.165,5.165,0,0,1,86.8,1.86c.322-.165.641-.332.976-.466.434-.173.89-.275,1.319-.465a5.754,5.754,0,0,1,1.974-.4c.281-.02.558-.1.838-.121.421-.034.842-.038,1.266-.034A7.062,7.062,0,0,0,94.2.294,1.832,1.832,0,0,1,95.029.4a2.972,2.972,0,0,0,.643.131,14.622,14.622,0,0,0,2.034.088,1.479,1.479,0,0,1,.538.1,2.6,2.6,0,0,0,.886.066,7.923,7.923,0,0,1,1.955.275,6.034,6.034,0,0,0,.966.226c.521.042,1.018.211,1.552.21a7.447,7.447,0,0,1,1.691.248c.411.1.833.141,1.246.25a5.572,5.572,0,0,1,1.129.476,2.115,2.115,0,0,1,.726.5.869.869,0,0,1,.222.9c-.113.361-.32.68-.4,1.04a2.99,2.99,0,0,0-.077.45.164.164,0,0,0,.024.1c.18.24.175.327-.048.518a.2.2,0,0,0-.054.232c.011.035.074.056.024.105-.119.12-.083.312-.145.418-.183.309-.1.649-.194.96-.025.082-.043.156-.128.175A15.4,15.4,0,0,1,105.98,7.8c-.406-.115-.83-.131-1.237-.266a3.047,3.047,0,0,0-1.166-.178c-.132.009-.037-.026-.03-.058.014-.068-.047-.059-.082-.068a2.379,2.379,0,0,0-.887-.169,4.2,4.2,0,0,1-1.01-.105,3.188,3.188,0,0,1-.793-.12c-.429-.186-.881-.06-1.312-.174a3.242,3.242,0,0,0-.971-.049,5.135,5.135,0,0,1-.8-.032,3.123,3.123,0,0,0-1.171.009,2.784,2.784,0,0,1-1.391-.065,1.356,1.356,0,0,0-.841,0c-.342.168-.633.03-.943.018a4.858,4.858,0,0,0-.863.09,15,15,0,0,0-2.15.557c-.135.04-.268.09-.4.143-.05.02-.125.029-.136.091-.014.086.08.095.128.118a5.881,5.881,0,0,0,.906.267,6.337,6.337,0,0,1,.967.277,2.921,2.921,0,0,0,.684.113c.58.116,1.156.256,1.738.36.355.063.721.069,1.08.117.812.108,1.63.076,2.442.138.592.045,1.185.107,1.777.106.558,0,1.114.044,1.67.065a17.329,17.329,0,0,1,1.81.209c.22.031.439.053.656.086.1.015.2.127.323.16.272.075.529.218.795.274.571.122,1.027.514,1.6.612.093.016.158.168.277.058a.028.028,0,0,1,.044,0c.113.128,1.669.914,1.871,1.042.027-.118.68.506.791.644.043.054.057.142.125.169.346.136.435.467.574.754a4.834,4.834,0,0,1,.489,1.5,4.018,4.018,0,0,1,0,.958.784.784,0,0,0,.04.513.279.279,0,0,1-.1.356.578.578,0,0,0-.187.314c-.113.3-.183.619-.267.927s-.274.532-.355.824c-.042.154-.227.241-.3.378-.173.31-.469.515-.656.808-.082.129-.241.139-.349.232a4.607,4.607,0,0,1-1.118.655,1.108,1.108,0,0,0-.407.294.243.243,0,0,1-.419-.01c-.026-.031-.054-.051-.089-.038-.194.072-.418.069-.565.262a.4.4,0,0,1-.349.168,2.617,2.617,0,0,0-1.133.267,1.729,1.729,0,0,1-.623.113,6.551,6.551,0,0,0-1.132.249,11.96,11.96,0,0,1-1.27.175c-.238.032-.471.084-.708.115a.329.329,0,0,0-.277.193c-.029.069-.1.147-.172.147A.1.1,0,0,1,100.058,22.385Zm-88.6-.206a3.78,3.78,0,0,1-.625-1.523,5.752,5.752,0,0,1-.172-1.429q0-.2.013-.4c.015-.255.039-.51.039-.764,0-.071,0-.142-.007-.213-.012-.18-.017-.36-.017-.54,0-.4.022-.791.027-1.186q0-.132,0-.263c0-.614-.026-1.228-.069-1.836-.055-.768-.041-1.533-.077-2.3-.01-.217-.039-.437-.04-.654a1.888,1.888,0,0,1,.011-.216,5.836,5.836,0,0,0,.037-.644q0-.25-.02-.5c-.046-.566-.054-1.134-.1-1.7-.027-.333-.028-.672-.059-1.006s-.076-.687-.141-1.028c-.024-.126-.051-.068-.1-.06A4.345,4.345,0,0,1,9.494,6,3.522,3.522,0,0,1,8.826,5.9,2.7,2.7,0,0,0,7.88,5.89a7.243,7.243,0,0,1-1.153-.021c-.061,0-.122-.062-.184-.1.006,0,.008-.005.009-.007,0-.035-.92.145-1.22.183a1.161,1.161,0,0,1-.23,0,.819.819,0,0,0-.36.029.9.9,0,0,1-.163,0,1.31,1.31,0,0,0-.438.032.436.436,0,0,1-.156.045,9.011,9.011,0,0,1-2.36-.143A5.924,5.924,0,0,1,.373,5.49a.363.363,0,0,1-.165-.36c0-.037,0-.074,0-.11a.345.345,0,0,1,.058-.159.334.334,0,0,0,.076-.187.287.287,0,0,0-.086-.181.5.5,0,0,1-.124-.343,1.854,1.854,0,0,1,.094-.468.346.346,0,0,0,.018-.071c0-.022-.01-.04-.045-.061a.183.183,0,0,1-.1-.166.386.386,0,0,1,.018-.106A.614.614,0,0,0,.147,3.11a.277.277,0,0,0-.072-.194.151.151,0,0,1-.039-.1c0-.068.03-.142.03-.214,0-.007,0-.015,0-.022A5.7,5.7,0,0,1,0,1.946a1.086,1.086,0,0,1,.116-.517.228.228,0,0,0,.02-.1c0-.022,0-.044,0-.065s0-.012,0-.018A.133.133,0,0,1,.262,1.1,1.5,1.5,0,0,0,.838.907,2.718,2.718,0,0,1,1.954.69C2.412.66,2.874.66,3.332.655,3.939.649,4.543.588,5.141.527S6.352.42,6.957.377A10.839,10.839,0,0,1,8.822.347a5.994,5.994,0,0,0,.624.015c.171,0,.343,0,.514.007a25.443,25.443,0,0,0,2.566.087c.807-.031,1.613-.1,2.42-.086A2.71,2.71,0,0,1,15.886.5a1.35,1.35,0,0,0,.587.042,2.672,2.672,0,0,1,.293-.011,1.4,1.4,0,0,0,.18-.012A1.478,1.478,0,0,1,17.123.5c.812.011,1.62-.066,2.43-.094.538-.019,1.076-.018,1.615,0,.685.019,1.372.015,2.058,0a8.936,8.936,0,0,1,1.851.2c.42.079.838.175,1.258.255a.4.4,0,0,1,.328.394.47.47,0,0,1-.007.079,1.933,1.933,0,0,1-.07.573.4.4,0,0,0-.04.166.249.249,0,0,0,.095.2.1.1,0,0,1,.039.083.132.132,0,0,1-.024.072.16.16,0,0,0-.028.091c0,.051.017.1.02.155.014.216-.017.428.172.589a13.155,13.155,0,0,1-.143,1.37.294.294,0,0,0-.01.082.387.387,0,0,0,.017.1.548.548,0,0,1,.027.149.216.216,0,0,1-.069.16.172.172,0,0,0-.05.123.163.163,0,0,0,.011.059.3.3,0,0,1,.026.109c0,.1-.1.1-.213.1a.293.293,0,0,0-.142.032,3.6,3.6,0,0,1-1.807.354c-.14,0-.279,0-.419,0a7.324,7.324,0,0,0-.807.024,6.673,6.673,0,0,1-1.021.035c-.653-.032-1.305-.03-1.958-.047a6.027,6.027,0,0,0-.9.107,4.75,4.75,0,0,1-1.013-.041,7.112,7.112,0,0,0-1.654-.023c-.13.02-.149.091-.176.2a1.737,1.737,0,0,0-.044.433c0,.134.008.269.009.4,0,.052,0,.1,0,.155-.031.523-.1,1.042-.105,1.567q0,.008,0,.016c0,.16.046.306.06.461.051.589.14,1.174.171,1.763.007.14.012.28.012.42a6.094,6.094,0,0,1-.087,1.073c-.042.236-.024.48-.043.72-.024.3-.044.6-.043.907a5.1,5.1,0,0,0,.062.805,1.782,1.782,0,0,1,.021.277c0,.28-.046.569-.049.852a6.208,6.208,0,0,1-.133,1.189.412.412,0,0,0-.008.084c0,.029,0,.057,0,.086,0,.268,0,.535,0,.8,0,.161,0,.321.006.481.024.862.065,1.724.087,2.587q0,.014,0,.029a1.267,1.267,0,0,1-.311.783.307.307,0,0,1-.458.035.266.266,0,0,0-.359-.008c-.034.029-.07.061-.108.014a.423.423,0,0,0-.469-.114.891.891,0,0,1-.227.021c-.071-.006-.1.08-.1.142a.2.2,0,0,1-.068.148c-.181.136-.3.1-.32-.121-.014-.138-.082-.123-.167-.116-.027,0-.054.018-.081.022a.944.944,0,0,0-.483.186c-.145.127-.277.159-.412-.006-.04-.049-.083-.026-.134-.013-.127.034-.254.076-.373-.043-.055-.055-.1-.02-.1.043a.17.17,0,0,0,0,.024.609.609,0,0,1,.011.061c0,.019-.007.035-.036.045-.044.015-.059-.029-.075-.059-.066-.114-.141-.075-.232-.028a.661.661,0,0,1-.245.1C11.609,22.371,11.563,22.312,11.456,22.179Zm56.492,0a20.074,20.074,0,0,0-2.621-.059c-.635.032-1.268.028-1.9.022a10.98,10.98,0,0,1-2.373-.23,3.507,3.507,0,0,0-.825-.01.766.766,0,0,1-.338-.054.917.917,0,0,0-.419-.072,3.464,3.464,0,0,1-1-.126c-.045-.013-.112-.026-.126-.058-.085-.194-.261-.177-.424-.212-.252-.053-.446-.4-.5-.721-.119-.657-.11-1.325-.189-1.985a1.079,1.079,0,0,1,.016-.518.457.457,0,0,0,0-.244,1.608,1.608,0,0,1,0-.587,3.336,3.336,0,0,0-.024-.8c-.043-.459.045-.918.036-1.377-.005-.283-.029-.565-.038-.847a7.24,7.24,0,0,1,.074-1.081,8.974,8.974,0,0,0,.085-1.017,14.326,14.326,0,0,1,.057-1.634,7,7,0,0,1,.125-1.234,3.087,3.087,0,0,0,.074-.749c.074-1.148.04-2.3.031-3.446,0-.39-.03-.781-.032-1.172,0-.067-.012-.12-.082-.148-.176-.07-.2-.191-.128-.357.1-.232.014-.485.077-.727a3.953,3.953,0,0,0,.092-.857c.011-.335-.1-1.2-.078-1.25.024-.067.089-.117.132-.033.067.132.15.062.183.011.075-.122.2-.16.3-.245.055-.048.085-.05.155-.014.112.056.249.112.343-.043.024-.04.046-.013.063,0A.59.59,0,0,0,59.259.2c.03-.017.081-.028.093,0,.073.182.2.089.31.066a2.992,2.992,0,0,1,.711-.041c.1,0,.194,0,.291,0a1.708,1.708,0,0,1,.608-.017A.842.842,0,0,0,62,.193c.1-.054.24.025.361.029.172,0,.344,0,.517,0,.208,0,.416,0,.624.008.147.007.248-.086.387-.1A9.4,9.4,0,0,1,65.414.042a5.259,5.259,0,0,0,1.2.036,4.465,4.465,0,0,1,.977-.061A21.264,21.264,0,0,0,69.82.141C70.586.1,71.351.035,72.117,0a3.621,3.621,0,0,1,.721.073,3.836,3.836,0,0,0,1.44,0,.624.624,0,0,1,.245-.008,1.474,1.474,0,0,0,.663,0,.474.474,0,0,1,.2.015A6.945,6.945,0,0,0,77,.169,2.962,2.962,0,0,1,78.311.35a.377.377,0,0,0,.2.041A1.315,1.315,0,0,1,79.414.6a2.172,2.172,0,0,1,.734.606.681.681,0,0,1-.124.851c-.164.145-.166.23-.018.392a.1.1,0,0,1,.031.123c-.024.009-.049-.007-.075-.023s-.086-.05-.136.023-.023.152-.038.209c-.049.186-.013.241.175.234.043,0,.139.032.123.11s-.035.15-.133.158h-.04a.137.137,0,0,0-.1.026c.014.144.194.074.237.18,0,.039-.035.032-.054.049-.076.066-.238,0-.253.122-.011.076.144.126.115.252-.008.038.046.03.078.013a.144.144,0,0,1,.154,0c.013.093-.094.035-.113.106.262.058.1.284.06.332a.41.41,0,0,0-.006.579.533.533,0,0,1-.263.738,3.059,3.059,0,0,1-1.045.22,5.169,5.169,0,0,1-1.213.013,6.341,6.341,0,0,0-1.4.076c-.589.024-1.161-.083-1.742-.09a1.149,1.149,0,0,0-.427.028c-.15.056-.305-.018-.456-.022-.059,0-.121,0-.181,0a2.236,2.236,0,0,1-.311,0,8.723,8.723,0,0,0-1.771-.139c-.468.045-.936.08-1.4.126a1.19,1.19,0,0,1-.22-.008,1,1,0,0,0-.26,0c-.376.058-.764.039-1.139.1-.691.111-1.394.077-2.084.226a4.513,4.513,0,0,1-.973.1c-.473,0-.948.024-1.422.036-.13,0-.158.033-.144.185a3.1,3.1,0,0,1-.029,1.042c-.059.242-.076.494-.128.738-.018.086.022.1.076.1a1.185,1.185,0,0,1,.239.024.982.982,0,0,0,.291.022c.075-.009.147.006.2-.079s.147-.044.221-.038a2.848,2.848,0,0,0,1.2-.1,2.433,2.433,0,0,1,.563-.067,14.992,14.992,0,0,1,1.765-.052c.222,0,.445,0,.667,0a1.368,1.368,0,0,0,.441-.044,1.751,1.751,0,0,1,.9-.02,1.686,1.686,0,0,0,.419-.005,2.381,2.381,0,0,1,.32-.015,11.714,11.714,0,0,1,2.068.143c.263.057.54.033.806.1.145.037.153-.081.113-.217.428.138.866.1,1.272.226a2.25,2.25,0,0,0,.919.041,3.918,3.918,0,0,1,.513-.026c.372.014.745,0,1.117.042a7.861,7.861,0,0,0,1.146.065c.49-.016.693.319.773.7.026.129-.078.17-.148.271.164,0,.181.1.235.2a1.051,1.051,0,0,1,.1.57c-.006.148-.087.288-.005.442a.553.553,0,0,0,.123.2c.026.02.066.061.059.078a.8.8,0,0,0,.079.577c.029.084.011.184.077.269.037.048.042.151,0,.175-.139.08-.091.2-.061.292a1.205,1.205,0,0,1-.129.79.113.113,0,0,1-.085.076,5.456,5.456,0,0,1-1.185.313c-.133.016-.25.107-.393.089-.021,0-.065.04-.069.066-.049.305-.312.273-.507.29a2.426,2.426,0,0,1-.8-.03,1.717,1.717,0,0,0-.849.1,5.14,5.14,0,0,1-1,.139c-.449.026-.9.011-1.347.049a11.954,11.954,0,0,1-1.84-.043,6.9,6.9,0,0,0-1.214.131,7.588,7.588,0,0,1-1.562.092c-.291-.029-.6-.01-.9-.032a15.342,15.342,0,0,0-1.75-.017c-.453.016-.905.032-1.358.028-.584,0-1.168-.02-1.752-.042-.158-.006-.206.04-.192.194.028.3,0,.592.027.889a4.06,4.06,0,0,1-.026.548c-.008.114.027.152.148.155.105,0,.211,0,.316-.006s.205-.008.308-.005c.547.011,1.094.075,1.641.065.439-.009.876-.005,1.314.022.11.006.22.071.319.04.164-.05.3.027.45.038a3.5,3.5,0,0,1,.526.06,1.258,1.258,0,0,0,.336-.011,1.682,1.682,0,0,1,.366.048,1.41,1.41,0,0,0,.481.04,9.852,9.852,0,0,1,1.391-.148,3.666,3.666,0,0,0,.544-.05,2.659,2.659,0,0,1,.776-.032,6.068,6.068,0,0,0,.935-.044,5.665,5.665,0,0,1,1.369.02,2.52,2.52,0,0,0,.61-.019c.205,0,.418,0,.625-.009.41-.013.813-.116,1.224-.094a.153.153,0,0,0,.1-.022.574.574,0,0,1,.456-.076,1.268,1.268,0,0,0,.21.013c.172-.01.345-.035.517-.037.282,0,.563,0,.845,0h.462a1.987,1.987,0,0,1,.683.167c.164.059.3.158.267.377-.014.1.067.174.137.24.129.12.155.243.009.368-.125.107-.171.206.025.281.094.036.058.087.049.159s-.114.23.1.211c.01,0,.033.042.033.043-.1.079-.1.142.007.225.036.029-.022.105-.073.074-.136-.084-.122.038-.152.1-.05.1.02.114.092.128.11.021.137.144.23.186.024.011.039.064.023.066-.166.019-.109.261-.277.272-.058,0-.124.021-.116.085a.143.143,0,0,0,.142.123.159.159,0,0,0,.041,0c.092-.016.1.05.105.112s-.03.066-.066.057a.089.089,0,0,0-.041-.005c-.05.013-.123-.008-.1.081.009.048.042.041.071.035s.032-.007.04,0a.291.291,0,0,1,.14.27.418.418,0,0,1-.068.188c-.049.072-.112.123,0,.2.042.027.019.1-.028.121-.136.068-.086.153,0,.2.2.1.142.26.105.406-.044.176-.127.34-.17.516-.034.138-.145.178-.243.215a1.406,1.406,0,0,1-.515.1c-.786-.015-1.561.126-2.343.16a12.641,12.641,0,0,1-1.741-.077,2.826,2.826,0,0,0-.518.016c-.432.037-.868.025-1.3.1a4.44,4.44,0,0,1-.726.011,14.294,14.294,0,0,0-2.12.163c-.209.031-.42.04-.631.056a5.245,5.245,0,0,0-.731.229,6.112,6.112,0,0,1-1.334.174C68.141,22.192,68.045,22.189,67.948,22.181Zm-27.469-.145a12.922,12.922,0,0,1-2.119-.212,13.1,13.1,0,0,1-1.53-.464,5.506,5.506,0,0,0-.948-.172,3.669,3.669,0,0,1-1.1-.329c-.315-.139-.623-.3-.925-.461a2.6,2.6,0,0,1-.568-.491,7.894,7.894,0,0,0-.876-.786,5.353,5.353,0,0,1-.77-.874c-.361-.413-.635-.882-.952-1.323a1.612,1.612,0,0,1-.336-.5c-.109-.437-.5-.687-.69-1.067a.6.6,0,0,1-.08-.171.828.828,0,0,1,0-.092c0-.033,0-.067,0-.1a.388.388,0,0,0-.122-.323.111.111,0,0,1-.04-.087c0-.065.042-.139.041-.218a.186.186,0,0,0-.02-.082c-.107-.214-.22-.42-.34-.627a3.66,3.66,0,0,1-.475-1.127c-.133-.695-.153-1.4-.242-2.1a8.382,8.382,0,0,1-.084-1.02c0-.1,0-.191.009-.286.017-.253.041-.507.042-.759,0-.084,0-.168-.009-.252-.009-.119-.011-.238-.011-.358,0-.168,0-.335,0-.5a3.537,3.537,0,0,0-.05-.656,6.857,6.857,0,0,1-.152-1.257c0-.1,0-.194.009-.291a12.1,12.1,0,0,1,.406-2.871.951.951,0,0,1,.165-.322,1.835,1.835,0,0,0,.333-.66.546.546,0,0,1,.7-.346c.2.053.427.1.6-.117a.129.129,0,0,1,.206.025c.05.1.148.129.223.191s.1.058.138-.032A.212.212,0,0,1,31.269.8a.175.175,0,0,0,.186.038,5.014,5.014,0,0,1,.689-.122,1.348,1.348,0,0,1,1.535,1.313c0,.19.083.367.086.552q0,.018,0,.037c-.025.564-.058,1.129-.121,1.69a1.233,1.233,0,0,0-.006.138c0,.061,0,.123,0,.185,0,.015,0,.031,0,.046a13.913,13.913,0,0,1-.2,2,3.153,3.153,0,0,0-.042.545,6.02,6.02,0,0,0,.052.706c.082.67.112,1.35.245,2.01a8.232,8.232,0,0,0,.656,2.083,12.077,12.077,0,0,1,.746,1.947,1.307,1.307,0,0,0,.561.667c.257.184.5.384.753.57a1.826,1.826,0,0,0,.77.242c.334.061.638.2.962.287.658.168,1.273.463,1.932.622a3.274,3.274,0,0,0,.678.1,9.13,9.13,0,0,0,1.234.046c.4-.044.791-.12,1.188-.172a11.427,11.427,0,0,0,1.584-.348c.474-.132.955-.229,1.439-.319a.5.5,0,0,0,.3-.161c.165-.225.428-.286.638-.43.185-.127.378-.246.549-.389a1.421,1.421,0,0,1,.516-.256.7.7,0,0,0,.527-.612,7.616,7.616,0,0,1,.593-1.783,2.682,2.682,0,0,0,.183-.961q0-.092-.009-.186c0-.037,0-.074,0-.112,0-.2.042-.407.045-.61q0-.059,0-.118c0-.276-.01-.552-.01-.827,0-.1,0-.21.006-.315a4.76,4.76,0,0,1,.259-1.4.642.642,0,0,0,.035-.22A1.085,1.085,0,0,0,49.78,7a1.381,1.381,0,0,1-.042-.385c0-.092,0-.185,0-.277a1.807,1.807,0,0,0-.011-.22c-.067-.573-.058-1.153-.157-1.724a1.124,1.124,0,0,1-.016-.187c0-.223.051-.446.066-.669.022-.334.088-.664.106-1,.039-.72.2-.914.906-1.128a.985.985,0,0,1,.794.244c.058.038.079.14.148.015.006-.013.039-.011.059-.018a.238.238,0,0,1,.169.029c.054.024.1.049.148.028.076-.04.091-.177.241-.115.036.015.143-.032.2-.1s.154-.148.24-.011a.05.05,0,0,0,.089,0c.091-.136.206-.081.327-.058a1.2,1.2,0,0,0,.607-.041.424.424,0,0,1,.367.034.252.252,0,0,0,.139.049c.319-.043.416.194.489.412a9.8,9.8,0,0,1,.363.925.138.138,0,0,0,.085.093c.183.026.186.161.193.294s.042.274.043.412a.6.6,0,0,1-.05.253.528.528,0,0,0-.041.225c0,.114.026.235.039.356.093-.064.161-.106.161.046,0,0,0,0,0,.008q0,.028,0,.056c0,.575.1,1.143.135,1.716.032.558.06,1.116.08,1.675q0,.015,0,.031c0,.143-.041.28-.042.426q0,.016,0,.031c.011.377.067.755.069,1.127,0,.069,0,.138-.005.206s-.006.137-.006.2c0,.3.035.6.034.9a2.86,2.86,0,0,1-.019.338,12.954,12.954,0,0,1-.148,1.439,8.854,8.854,0,0,0-.1.912,1.169,1.169,0,0,1-.136.375,5.117,5.117,0,0,0-.3,1.043,5.246,5.246,0,0,1-.7,1.513,9.165,9.165,0,0,1-1.057,1.3c-.313.332-.59.7-.913,1.018a5.742,5.742,0,0,1-1.611,1.178c-.868.4-1.763.747-2.663,1.065a6.863,6.863,0,0,1-1.862.39c-.369.023-.734.112-1.1.151-.264.028-.527.083-.788.094-.6.025-1.194.151-1.8.14a1.944,1.944,0,0,0-.481.1,5.37,5.37,0,0,1-1.267.11Z" transform="translate(0.5 0.499)" fill="#161615" stroke="rgba(0,0,0,0)" stroke-width="1"/>
</svg>
